<?xml version="1.0" encoding="UTF-8" standalone="no"?>
<!DOCTYPE svg PUBLIC "-//W3C//DTD SVG 1.1//EN"
 "http://www.w3.org/Graphics/SVG/1.1/DTD/svg11.dtd">
<!-- Generated by graphviz version 2.36.0 (20140111.2315)
 -->
<!-- Title: workflow Pages: 1 -->
<svg width="776pt" height="239pt"
 viewBox="0.00 0.00 776.00 239.00" xmlns="http://www.w3.org/2000/svg" xmlns:xlink="http://www.w3.org/1999/xlink">
<g id="graph0" class="graph" transform="scale(1 1) rotate(0) translate(4 235)">
<title>workflow</title>
<polygon fill="white" stroke="none" points="-4,4 -4,-235 772,-235 772,4 -4,4"/>
<!-- place_scheduled -->
<g id="node1" class="node"><title>place_scheduled</title>
<ellipse fill="lightblue" stroke="#ff0000" cx="40" cy="-105" rx="36" ry="36"/>
<ellipse fill="none" stroke="#ff0000" cx="40" cy="-105" rx="40" ry="40"/>
<text text-anchor="middle" x="40" y="-102.8" font-family="Arial" font-size="9.00">Scheduled</text>
</g>
<!-- transition_msg_to_twilio -->
<g id="node9" class="node"><title>transition_msg_to_twilio</title>
<polygon fill="none" stroke="#333333" points="166,-231 94,-231 94,-159 166,-159 166,-231"/>
<text text-anchor="middle" x="130" y="-192.8" font-family="Arial" font-size="9.00">Msg To Twilio</text>
</g>
<!-- place_scheduled&#45;&gt;transition_msg_to_twilio -->
<g id="edge1" class="edge"><title>place_scheduled&#45;&gt;transition_msg_to_twilio</title>
<path fill="none" stroke="#333333" d="M68.8438,-133.477C75.6809,-140.469 83.1224,-148.08 90.3669,-155.489"/>
<polygon fill="#333333" stroke="#333333" points="89.1571,-156.755 93.904,-159.106 91.6596,-154.308 89.1571,-156.755"/>
</g>
<!-- transition_twilio_error -->
<g id="node10" class="node"><title>transition_twilio_error</title>
<polygon fill="none" stroke="#333333" points="166,-141 94,-141 94,-69 166,-69 166,-141"/>
<text text-anchor="middle" x="130" y="-102.8" font-family="Arial" font-size="9.00">Twilio Error</text>
</g>
<!-- place_scheduled&#45;&gt;transition_twilio_error -->
<g id="edge3" class="edge"><title>place_scheduled&#45;&gt;transition_twilio_error</title>
<path fill="none" stroke="#333333" d="M80.1106,-105C82.9795,-105 85.8766,-105 88.7521,-105"/>
<polygon fill="#333333" stroke="#333333" points="88.8941,-106.75 93.8941,-105 88.894,-103.25 88.8941,-106.75"/>
</g>
<!-- transition_direct_message -->
<g id="node11" class="node"><title>transition_direct_message</title>
<polygon fill="none" stroke="#333333" points="338,-109 266,-109 266,-37 338,-37 338,-109"/>
<text text-anchor="middle" x="302" y="-70.8" font-family="Arial" font-size="9.00">Direct Message</text>
</g>
<!-- place_scheduled&#45;&gt;transition_direct_message -->
<g id="edge5" class="edge"><title>place_scheduled&#45;&gt;transition_direct_message</title>
<path fill="none" stroke="#333333" d="M67.7365,-76.0892C75.5042,-69.5421 84.4822,-63.4955 94,-60 149.054,-39.7804 217.848,-50.5526 260.611,-61.0648"/>
<polygon fill="#333333" stroke="#333333" points="260.419,-62.8208 265.694,-62.3434 261.272,-59.4266 260.419,-62.8208"/>
</g>
<!-- place_queued -->
<g id="node2" class="node"><title>place_queued</title>
<ellipse fill="none" stroke="#333333" cx="216" cy="-195" rx="36" ry="36"/>
<text text-anchor="middle" x="216" y="-192.8" font-family="Arial" font-size="9.00">Queued</text>
</g>
<!-- transition_initial_prompt_received -->
<g id="node12" class="node"><title>transition_initial_prompt_received</title>
<polygon fill="none" stroke="#333333" points="338,-215 266,-215 266,-143 338,-143 338,-215"/>
<text text-anchor="middle" x="302" y="-181.8" font-family="Arial" font-size="9.00">Initial Prompt</text>
<text text-anchor="middle" x="302" y="-171.8" font-family="Arial" font-size="9.00">Received</text>
</g>
<!-- place_queued&#45;&gt;transition_initial_prompt_received -->
<g id="edge7" class="edge"><title>place_queued&#45;&gt;transition_initial_prompt_received</title>
<path fill="none" stroke="#333333" d="M251.651,-188.4C254.589,-187.84 257.576,-187.271 260.552,-186.704"/>
<polygon fill="#333333" stroke="#333333" points="261.302,-188.343 265.886,-185.688 260.647,-184.905 261.302,-188.343"/>
</g>
<!-- place_twilio_error -->
<g id="node3" class="node"><title>place_twilio_error</title>
<ellipse fill="none" stroke="#333333" cx="216" cy="-105" rx="36" ry="36"/>
<text text-anchor="middle" x="216" y="-102.8" font-family="Arial" font-size="9.00">Twilio Error</text>
</g>
<!-- place_initiated -->
<g id="node4" class="node"><title>place_initiated</title>
<ellipse fill="none" stroke="#333333" cx="388" cy="-126" rx="36" ry="36"/>
<text text-anchor="middle" x="388" y="-123.8" font-family="Arial" font-size="9.00">Initiated</text>
</g>
<!-- transition_never_responds -->
<g id="node13" class="node"><title>transition_never_responds</title>
<polygon fill="none" stroke="#333333" points="510,-207 438,-207 438,-135 510,-135 510,-207"/>
<text text-anchor="middle" x="474" y="-168.8" font-family="Arial" font-size="9.00">Never Responds</text>
</g>
<!-- place_initiated&#45;&gt;transition_never_responds -->
<g id="edge9" class="edge"><title>place_initiated&#45;&gt;transition_never_responds</title>
<path fill="none" stroke="#333333" d="M420.278,-142.756C424.458,-144.995 428.789,-147.315 433.09,-149.62"/>
<polygon fill="#333333" stroke="#333333" points="432.504,-151.291 437.738,-152.11 434.157,-148.206 432.504,-151.291"/>
</g>
<!-- transition_first_response -->
<g id="node14" class="node"><title>transition_first_response</title>
<polygon fill="none" stroke="#333333" points="510,-117 438,-117 438,-45 510,-45 510,-117"/>
<text text-anchor="middle" x="474" y="-78.8" font-family="Arial" font-size="9.00">First Response</text>
</g>
<!-- place_initiated&#45;&gt;transition_first_response -->
<g id="edge11" class="edge"><title>place_initiated&#45;&gt;transition_first_response</title>
<path fill="none" stroke="#333333" d="M420.278,-109.244C424.458,-107.005 428.789,-104.685 433.09,-102.38"/>
<polygon fill="#333333" stroke="#333333" points="434.157,-103.794 437.738,-99.8905 432.504,-100.709 434.157,-103.794"/>
</g>
<!-- place_responding -->
<g id="node5" class="node"><title>place_responding</title>
<ellipse fill="none" stroke="#333333" cx="560" cy="-81" rx="36" ry="36"/>
<text text-anchor="middle" x="560" y="-78.8" font-family="Arial" font-size="9.00">Responding</text>
</g>
<!-- transition_stops_responding -->
<g id="node15" class="node"><title>transition_stops_responding</title>
<polygon fill="none" stroke="#333333" points="682,-162 610,-162 610,-90 682,-90 682,-162"/>
<text text-anchor="middle" x="646" y="-128.8" font-family="Arial" font-size="9.00">Stops</text>
<text text-anchor="middle" x="646" y="-118.8" font-family="Arial" font-size="9.00">Responding</text>
</g>
<!-- place_responding&#45;&gt;transition_stops_responding -->
<g id="edge13" class="edge"><title>place_responding&#45;&gt;transition_stops_responding</title>
<path fill="none" stroke="#333333" d="M592.278,-97.7563C596.458,-99.9952 600.789,-102.315 605.09,-104.62"/>
<polygon fill="#333333" stroke="#333333" points="604.504,-106.291 609.738,-107.11 606.157,-103.206 604.504,-106.291"/>
</g>
<!-- transition_all_responses -->
<g id="node16" class="node"><title>transition_all_responses</title>
<polygon fill="none" stroke="#333333" points="682,-72 610,-72 610,-0 682,-0 682,-72"/>
<text text-anchor="middle" x="646" y="-33.8" font-family="Arial" font-size="9.00">All Responses</text>
</g>
<!-- place_responding&#45;&gt;transition_all_responses -->
<g id="edge15" class="edge"><title>place_responding&#45;&gt;transition_all_responses</title>
<path fill="none" stroke="#333333" d="M592.278,-64.2437C596.458,-62.0048 600.789,-59.6847 605.09,-57.3803"/>
<polygon fill="#333333" stroke="#333333" points="606.157,-58.7942 609.738,-54.8905 604.504,-55.7091 606.157,-58.7942"/>
</g>
<!-- place_abandoned -->
<g id="node6" class="node"><title>place_abandoned</title>
<ellipse fill="none" stroke="#333333" cx="732" cy="-126" rx="36" ry="36"/>
<text text-anchor="middle" x="732" y="-123.8" font-family="Arial" font-size="9.00">Abandoned</text>
</g>
<!-- place_complete -->
<g id="node7" class="node"><title>place_complete</title>
<ellipse fill="none" stroke="#333333" cx="732" cy="-36" rx="36" ry="36"/>
<text text-anchor="middle" x="732" y="-33.8" font-family="Arial" font-size="9.00">Complete</text>
</g>
<!-- place_expired -->
<g id="node8" class="node"><title>place_expired</title>
<ellipse fill="none" stroke="#333333" cx="560" cy="-171" rx="36" ry="36"/>
<text text-anchor="middle" x="560" y="-168.8" font-family="Arial" font-size="9.00">Expired</text>
</g>
<!-- transition_msg_to_twilio&#45;&gt;place_queued -->
<g id="edge2" class="edge"><title>transition_msg_to_twilio&#45;&gt;place_queued</title>
<path fill="none" stroke="#333333" d="M166.137,-195C168.947,-195 171.799,-195 174.641,-195"/>
<polygon fill="#333333" stroke="#333333" points="174.734,-196.75 179.734,-195 174.734,-193.25 174.734,-196.75"/>
</g>
<!-- transition_twilio_error&#45;&gt;place_twilio_error -->
<g id="edge4" class="edge"><title>transition_twilio_error&#45;&gt;place_twilio_error</title>
<path fill="none" stroke="#333333" d="M166.137,-105C168.947,-105 171.799,-105 174.641,-105"/>
<polygon fill="#333333" stroke="#333333" points="174.734,-106.75 179.734,-105 174.734,-103.25 174.734,-106.75"/>
</g>
<!-- transition_direct_message&#45;&gt;place_initiated -->
<g id="edge6" class="edge"><title>transition_direct_message&#45;&gt;place_initiated</title>
<path fill="none" stroke="#333333" d="M338.137,-95.1697C342.956,-98.2102 347.898,-101.329 352.702,-104.36"/>
<polygon fill="#333333" stroke="#333333" points="351.904,-105.926 357.067,-107.114 353.772,-102.965 351.904,-105.926"/>
</g>
<!-- transition_initial_prompt_received&#45;&gt;place_initiated -->
<g id="edge8" class="edge"><title>transition_initial_prompt_received&#45;&gt;place_initiated</title>
<path fill="none" stroke="#333333" d="M338.137,-156.83C342.956,-153.79 347.898,-150.671 352.702,-147.64"/>
<polygon fill="#333333" stroke="#333333" points="353.772,-149.035 357.067,-144.886 351.904,-146.074 353.772,-149.035"/>
</g>
<!-- transition_never_responds&#45;&gt;place_expired -->
<g id="edge10" class="edge"><title>transition_never_responds&#45;&gt;place_expired</title>
<path fill="none" stroke="#333333" d="M510.137,-171C512.947,-171 515.799,-171 518.641,-171"/>
<polygon fill="#333333" stroke="#333333" points="518.734,-172.75 523.734,-171 518.734,-169.25 518.734,-172.75"/>
</g>
<!-- transition_first_response&#45;&gt;place_responding -->
<g id="edge12" class="edge"><title>transition_first_response&#45;&gt;place_responding</title>
<path fill="none" stroke="#333333" d="M510.137,-81C512.947,-81 515.799,-81 518.641,-81"/>
<polygon fill="#333333" stroke="#333333" points="518.734,-82.7501 523.734,-81 518.734,-79.2501 518.734,-82.7501"/>
</g>
<!-- transition_stops_responding&#45;&gt;place_abandoned -->
<g id="edge14" class="edge"><title>transition_stops_responding&#45;&gt;place_abandoned</title>
<path fill="none" stroke="#333333" d="M682.137,-126C684.947,-126 687.799,-126 690.641,-126"/>
<polygon fill="#333333" stroke="#333333" points="690.734,-127.75 695.734,-126 690.734,-124.25 690.734,-127.75"/>
</g>
<!-- transition_all_responses&#45;&gt;place_complete -->
<g id="edge16" class="edge"><title>transition_all_responses&#45;&gt;place_complete</title>
<path fill="none" stroke="#333333" d="M682.137,-36C684.947,-36 687.799,-36 690.641,-36"/>
<polygon fill="#333333" stroke="#333333" points="690.734,-37.7501 695.734,-36 690.734,-34.2501 690.734,-37.7501"/>
</g>
</g>
</svg>
